<?xml version="1.0" encoding="UTF-8"?>
<svg id="Layer_2" data-name="Layer 2" xmlns="http://www.w3.org/2000/svg" viewBox="0 0 780.71 221">
  <g id="Layer_1-2" data-name="Layer 1">
    <g>
      <path d="M19.62,189.6H0V33.27h19.62v59.64h.28c5.69-25.88,23.32-38.67,47.2-38.67,36.4,0,48.06,23.89,48.06,52.32v83.03h-19.24l-.38-78.77c0-19.62-8.25-38.67-35.26-38.67-25.31,0-40.66,14.22-40.66,38.67v78.77Z"/>
      <path d="M214.83,155.48h-.28c-6.26,25.02-25.02,36.97-48.34,36.97-26.73,0-43.22-12.23-43.22-36.97,0-21.9,15.07-38.96,46.07-38.96h45.78v-8.82c0-23.32-8.53-36.11-32.42-36.11-21.04,0-32.42,9.95-36.4,34.41l-18.77-3.13c4.55-31.85,23.32-48.34,55.73-48.34,35.55,0,51.19,18.77,51.19,52.61v82.46h-19.34v-34.12ZM214.83,140.97v-8.53h-43.79c-18.48,0-28.72,7.39-28.72,21.33,0,10.81,7.39,21.9,28.15,21.9,27.58,0,44.36-14.79,44.36-34.69Z"/>
      <path d="M267.4,189.6h-19.4V57.37h19.62v35.55h.28c5.69-25.88,23.32-38.67,47.2-38.67,36.4,0,48.06,23.89,48.06,52.32v83.03h-19.62v-78.77c0-19.62-8.25-38.67-35.26-38.67-25.31,0-40.66,14.22-40.66,38.67l-.23,78.77Z"/>
      <path d="M478.73,149.5h-.28c-5.4,25.88-21.61,43.22-51.19,43.22-37.25,0-56.87-26.73-56.87-69.1s21.04-69.67,56.02-69.38c31.28-.28,46.92,17.63,52.04,43.79h.28V33.27h19.62v156.33h-19.62v-40.09ZM478.73,124.48v-1.71c0-30.71-17.63-50.9-45.5-50.9s-43.22,19.05-43.22,52.04,13.93,50.9,43.22,50.9,45.5-17.91,45.5-50.33Z"/>
      <path d="M507.73,146.45V33.27h19.62v113.18h-19.62Z"/>
      <path d="M592.47,221c-50.05,0-64.83-10.81-64.83-27.87,0-11.37,10.24-20.19,30.43-23.03v-.28c-9.38-1.71-16.49-6.82-16.49-16.49,0-6.26,5.97-11.66,13.37-15.36l10.24-6.26c-19.05-6.26-29.29-20.47-29.29-39.81,0-29.86,20.76-45.78,55.45-45.78h62.84v17.35h-20.47c-7.11,0-13.08-.28-23.89-.85v.57c19.62,3.41,33.84,11.66,33.84,32.7,0,25.59-18.48,39.24-54.6,39.24-8.53,0-15.92-1.14-22.46-2.84l-4.55,6.54c-2.28,3.7-4.26,5.69-4.26,8.53,0,5.97,5.12,8.25,13.93,8.25,16.21,0,34.12-.57,49.76-.57,24.74,0,36.4,11.09,36.4,29.86,0,24.17-15.93,36.11-65.4,36.11ZM641.09,184.88c0-7.39-4.55-14.22-18.77-14.22h-52.61c-18.2,0-25.31,9.1-25.31,17.06,0,12.51,10.24,17.35,47.49,17.35,40.38,0,49.19-6.54,49.19-20.19ZM554.36,91.9c0,18.48,9.95,28.44,35.26,28.44s36.4-9.67,36.4-28.44-12.8-28.72-36.97-28.72-34.69,11.09-34.69,28.72Z"/>
      <path d="M661.12,156.18s.03.05.05.07c.02,0,.03,0,.05-.01-.03-.04-.07-.08-.1-.13v.07Z"/>
      <path d="M714.17,41.3c-38.06,0-64.88,24.07-66.46,64.95,10.63-.34,21.9-.8,25.18-1.33,6.69-1.08,12.74-1.15,12.74-1.15,0,0,.31,1.86.78,4.85h0s1.67-.53,2.17-2.76c.5-2.23,6.33-19,6.48-21.16.14-2.16-1.01-12.02-1.01-12.74,0-.61,3.9-5.02,9.4-.36,2.48,2.1,3.96,5.16,4.36,8.39.64,5.14.47,12.38-.08,15.79,0,0,18.35-2.59,26.55-2.23,1.87-.14,6.76,5.54,2.45,11.59,0,0,7.99,5.47-.22,11.87,0,0,4.46,7.2-2.59,10.79,0,0,3.24,4.61,1.58,7.34-1.66,2.73-4.66,4.46-22.19,6.48-5.23.72-17.39.79-19.04.65-1.66-.14-3.56-1.23-3.56-1.23v-.03c.15,1.79.27,3.44.33,4.86,0,0-19.29,7.68-27.14,9.72-.92.24-1.79.45-2.66.66,11.35,15.05,29.43,23.54,52.95,23.54,41.52,0,66.54-26.73,66.54-69.67s-27.3-68.82-66.54-68.82Z"/>
      <rect x="507.73" width="19.62" height="19.62"/>
    </g>
  </g>
</svg>