<svg width="52" height="52" viewBox="0 0 52 52" fill="none" xmlns="http://www.w3.org/2000/svg">
<path d="M37.1984 20.667C39.4427 17.7736 38.9164 13.6087 36.0229 11.3645C33.1295 9.12024 28.9646 9.64653 26.7204 12.54C24.4762 15.4334 25.0025 19.5983 27.8959 21.8425C30.7893 24.0867 34.9542 23.5605 37.1984 20.667Z" fill="#124096" stroke="#124096" stroke-width="2.4" stroke-miterlimit="10" stroke-linecap="round" stroke-linejoin="round"/>
<path d="M19.153 40.8633C19.153 33.8 24.8946 28.0583 31.958 28.0583C39.0213 28.0583 44.763 33.8 44.763 40.8633" fill="#124096"/>
<path d="M18.6634 20.7977C19.8731 18.5406 19.0241 15.7303 16.767 14.5206C14.51 13.3109 11.6996 14.1599 10.4899 16.417C9.28022 18.674 10.1293 21.4844 12.3863 22.6941C14.6434 23.9038 17.4537 23.0547 18.6634 20.7977Z" stroke="#124096" stroke-width="2.4" stroke-miterlimit="10" stroke-linecap="round" stroke-linejoin="round"/>
<path d="M5.63354 35.5551C5.63354 30.6151 9.64188 26.6068 14.5819 26.6068C18.2435 26.6068 21.3852 28.7951 22.7719 31.9584" stroke="#124096" stroke-width="2.4" stroke-miterlimit="10" stroke-linecap="round" stroke-linejoin="round"/>
</svg>
